<svg xmlns="http://www.w3.org/2000/svg" viewBox="0 0 1200 900" width="1200" height="900" role="img" aria-label="Placeholder plate 05">
<defs><linearGradient id="bg05" x1="0" y1="0" x2="0" y2="1">
<stop offset="0" stop-color="#eee5d4"/><stop offset="1" stop-color="#e4d9c4"/>
</linearGradient></defs>
<rect width="1200" height="900" fill="url(#bg05)"/>
<g transform="rotate(34 600 450)" stroke="#5c4f3c" stroke-width="1" opacity="0.05"><line x1="-2100" y1="-900" x2="0" y2="1800" /><line x1="-2091" y1="-900" x2="9" y2="1800" /><line x1="-2082" y1="-900" x2="18" y2="1800" /><line x1="-2073" y1="-900" x2="27" y2="1800" /><line x1="-2064" y1="-900" x2="36" y2="1800" /><line x1="-2055" y1="-900" x2="45" y2="1800" /><line x1="-2046" y1="-900" x2="54" y2="1800" /><line x1="-2037" y1="-900" x2="63" y2="1800" /><line x1="-2028" y1="-900" x2="72" y2="1800" /><line x1="-2019" y1="-900" x2="81" y2="1800" /><line x1="-2010" y1="-900" x2="90" y2="1800" /><line x1="-2001" y1="-900" x2="99" y2="1800" /><line x1="-1992" y1="-900" x2="108" y2="1800" /><line x1="-1983" y1="-900" x2="117" y2="1800" /><line x1="-1974" y1="-900" x2="126" y2="1800" /><line x1="-1965" y1="-900" x2="135" y2="1800" /><line x1="-1956" y1="-900" x2="144" y2="1800" /><line x1="-1947" y1="-900" x2="153" y2="1800" /><line x1="-1938" y1="-900" x2="162" y2="1800" /><line x1="-1929" y1="-900" x2="171" y2="1800" /><line x1="-1920" y1="-900" x2="180" y2="1800" /><line x1="-1911" y1="-900" x2="189" y2="1800" /><line x1="-1902" y1="-900" x2="198" y2="1800" /><line x1="-1893" y1="-900" x2="207" y2="1800" /><line x1="-1884" y1="-900" x2="216" y2="1800" /><line x1="-1875" y1="-900" x2="225" y2="1800" /><line x1="-1866" y1="-900" x2="234" y2="1800" /><line x1="-1857" y1="-900" x2="243" y2="1800" /><line x1="-1848" y1="-900" x2="252" y2="1800" /><line x1="-1839" y1="-900" x2="261" y2="1800" /><line x1="-1830" y1="-900" x2="270" y2="1800" /><line x1="-1821" y1="-900" x2="279" y2="1800" /><line x1="-1812" y1="-900" x2="288" y2="1800" /><line x1="-1803" y1="-900" x2="297" y2="1800" /><line x1="-1794" y1="-900" x2="306" y2="1800" /><line x1="-1785" y1="-900" x2="315" y2="1800" /><line x1="-1776" y1="-900" x2="324" y2="1800" /><line x1="-1767" y1="-900" x2="333" y2="1800" /><line x1="-1758" y1="-900" x2="342" y2="1800" /><line x1="-1749" y1="-900" x2="351" y2="1800" /><line x1="-1740" y1="-900" x2="360" y2="1800" /><line x1="-1731" y1="-900" x2="369" y2="1800" /><line x1="-1722" y1="-900" x2="378" y2="1800" /><line x1="-1713" y1="-900" x2="387" y2="1800" /><line x1="-1704" y1="-900" x2="396" y2="1800" /><line x1="-1695" y1="-900" x2="405" y2="1800" /><line x1="-1686" y1="-900" x2="414" y2="1800" /><line x1="-1677" y1="-900" x2="423" y2="1800" /><line x1="-1668" y1="-900" x2="432" y2="1800" /><line x1="-1659" y1="-900" x2="441" y2="1800" /><line x1="-1650" y1="-900" x2="450" y2="1800" /><line x1="-1641" y1="-900" x2="459" y2="1800" /><line x1="-1632" y1="-900" x2="468" y2="1800" /><line x1="-1623" y1="-900" x2="477" y2="1800" /><line x1="-1614" y1="-900" x2="486" y2="1800" /><line x1="-1605" y1="-900" x2="495" y2="1800" /><line x1="-1596" y1="-900" x2="504" y2="1800" /><line x1="-1587" y1="-900" x2="513" y2="1800" /><line x1="-1578" y1="-900" x2="522" y2="1800" /><line x1="-1569" y1="-900" x2="531" y2="1800" /><line x1="-1560" y1="-900" x2="540" y2="1800" /><line x1="-1551" y1="-900" x2="549" y2="1800" /><line x1="-1542" y1="-900" x2="558" y2="1800" /><line x1="-1533" y1="-900" x2="567" y2="1800" /><line x1="-1524" y1="-900" x2="576" y2="1800" /><line x1="-1515" y1="-900" x2="585" y2="1800" /><line x1="-1506" y1="-900" x2="594" y2="1800" /><line x1="-1497" y1="-900" x2="603" y2="1800" /><line x1="-1488" y1="-900" x2="612" y2="1800" /><line x1="-1479" y1="-900" x2="621" y2="1800" /><line x1="-1470" y1="-900" x2="630" y2="1800" /><line x1="-1461" y1="-900" x2="639" y2="1800" /><line x1="-1452" y1="-900" x2="648" y2="1800" /><line x1="-1443" y1="-900" x2="657" y2="1800" /><line x1="-1434" y1="-900" x2="666" y2="1800" /><line x1="-1425" y1="-900" x2="675" y2="1800" /><line x1="-1416" y1="-900" x2="684" y2="1800" /><line x1="-1407" y1="-900" x2="693" y2="1800" /><line x1="-1398" y1="-900" x2="702" y2="1800" /><line x1="-1389" y1="-900" x2="711" y2="1800" /><line x1="-1380" y1="-900" x2="720" y2="1800" /><line x1="-1371" y1="-900" x2="729" y2="1800" /><line x1="-1362" y1="-900" x2="738" y2="1800" /><line x1="-1353" y1="-900" x2="747" y2="1800" /><line x1="-1344" y1="-900" x2="756" y2="1800" /><line x1="-1335" y1="-900" x2="765" y2="1800" /><line x1="-1326" y1="-900" x2="774" y2="1800" /><line x1="-1317" y1="-900" x2="783" y2="1800" /><line x1="-1308" y1="-900" x2="792" y2="1800" /><line x1="-1299" y1="-900" x2="801" y2="1800" /><line x1="-1290" y1="-900" x2="810" y2="1800" /><line x1="-1281" y1="-900" x2="819" y2="1800" /><line x1="-1272" y1="-900" x2="828" y2="1800" /><line x1="-1263" y1="-900" x2="837" y2="1800" /><line x1="-1254" y1="-900" x2="846" y2="1800" /><line x1="-1245" y1="-900" x2="855" y2="1800" /><line x1="-1236" y1="-900" x2="864" y2="1800" /><line x1="-1227" y1="-900" x2="873" y2="1800" /><line x1="-1218" y1="-900" x2="882" y2="1800" /><line x1="-1209" y1="-900" x2="891" y2="1800" /><line x1="-1200" y1="-900" x2="900" y2="1800" /><line x1="-1191" y1="-900" x2="909" y2="1800" /><line x1="-1182" y1="-900" x2="918" y2="1800" /><line x1="-1173" y1="-900" x2="927" y2="1800" /><line x1="-1164" y1="-900" x2="936" y2="1800" /><line x1="-1155" y1="-900" x2="945" y2="1800" /><line x1="-1146" y1="-900" x2="954" y2="1800" /><line x1="-1137" y1="-900" x2="963" y2="1800" /><line x1="-1128" y1="-900" x2="972" y2="1800" /><line x1="-1119" y1="-900" x2="981" y2="1800" /><line x1="-1110" y1="-900" x2="990" y2="1800" /><line x1="-1101" y1="-900" x2="999" y2="1800" /><line x1="-1092" y1="-900" x2="1008" y2="1800" /><line x1="-1083" y1="-900" x2="1017" y2="1800" /><line x1="-1074" y1="-900" x2="1026" y2="1800" /><line x1="-1065" y1="-900" x2="1035" y2="1800" /><line x1="-1056" y1="-900" x2="1044" y2="1800" /><line x1="-1047" y1="-900" x2="1053" y2="1800" /><line x1="-1038" y1="-900" x2="1062" y2="1800" /><line x1="-1029" y1="-900" x2="1071" y2="1800" /><line x1="-1020" y1="-900" x2="1080" y2="1800" /><line x1="-1011" y1="-900" x2="1089" y2="1800" /><line x1="-1002" y1="-900" x2="1098" y2="1800" /><line x1="-993" y1="-900" x2="1107" y2="1800" /><line x1="-984" y1="-900" x2="1116" y2="1800" /><line x1="-975" y1="-900" x2="1125" y2="1800" /><line x1="-966" y1="-900" x2="1134" y2="1800" /><line x1="-957" y1="-900" x2="1143" y2="1800" /><line x1="-948" y1="-900" x2="1152" y2="1800" /><line x1="-939" y1="-900" x2="1161" y2="1800" /><line x1="-930" y1="-900" x2="1170" y2="1800" /><line x1="-921" y1="-900" x2="1179" y2="1800" /><line x1="-912" y1="-900" x2="1188" y2="1800" /><line x1="-903" y1="-900" x2="1197" y2="1800" /><line x1="-894" y1="-900" x2="1206" y2="1800" /><line x1="-885" y1="-900" x2="1215" y2="1800" /><line x1="-876" y1="-900" x2="1224" y2="1800" /><line x1="-867" y1="-900" x2="1233" y2="1800" /><line x1="-858" y1="-900" x2="1242" y2="1800" /><line x1="-849" y1="-900" x2="1251" y2="1800" /><line x1="-840" y1="-900" x2="1260" y2="1800" /><line x1="-831" y1="-900" x2="1269" y2="1800" /><line x1="-822" y1="-900" x2="1278" y2="1800" /><line x1="-813" y1="-900" x2="1287" y2="1800" /><line x1="-804" y1="-900" x2="1296" y2="1800" /><line x1="-795" y1="-900" x2="1305" y2="1800" /><line x1="-786" y1="-900" x2="1314" y2="1800" /><line x1="-777" y1="-900" x2="1323" y2="1800" /><line x1="-768" y1="-900" x2="1332" y2="1800" /><line x1="-759" y1="-900" x2="1341" y2="1800" /><line x1="-750" y1="-900" x2="1350" y2="1800" /><line x1="-741" y1="-900" x2="1359" y2="1800" /><line x1="-732" y1="-900" x2="1368" y2="1800" /><line x1="-723" y1="-900" x2="1377" y2="1800" /><line x1="-714" y1="-900" x2="1386" y2="1800" /><line x1="-705" y1="-900" x2="1395" y2="1800" /><line x1="-696" y1="-900" x2="1404" y2="1800" /><line x1="-687" y1="-900" x2="1413" y2="1800" /><line x1="-678" y1="-900" x2="1422" y2="1800" /><line x1="-669" y1="-900" x2="1431" y2="1800" /><line x1="-660" y1="-900" x2="1440" y2="1800" /><line x1="-651" y1="-900" x2="1449" y2="1800" /><line x1="-642" y1="-900" x2="1458" y2="1800" /><line x1="-633" y1="-900" x2="1467" y2="1800" /><line x1="-624" y1="-900" x2="1476" y2="1800" /><line x1="-615" y1="-900" x2="1485" y2="1800" /><line x1="-606" y1="-900" x2="1494" y2="1800" /><line x1="-597" y1="-900" x2="1503" y2="1800" /><line x1="-588" y1="-900" x2="1512" y2="1800" /><line x1="-579" y1="-900" x2="1521" y2="1800" /><line x1="-570" y1="-900" x2="1530" y2="1800" /><line x1="-561" y1="-900" x2="1539" y2="1800" /><line x1="-552" y1="-900" x2="1548" y2="1800" /><line x1="-543" y1="-900" x2="1557" y2="1800" /><line x1="-534" y1="-900" x2="1566" y2="1800" /><line x1="-525" y1="-900" x2="1575" y2="1800" /><line x1="-516" y1="-900" x2="1584" y2="1800" /><line x1="-507" y1="-900" x2="1593" y2="1800" /><line x1="-498" y1="-900" x2="1602" y2="1800" /><line x1="-489" y1="-900" x2="1611" y2="1800" /><line x1="-480" y1="-900" x2="1620" y2="1800" /><line x1="-471" y1="-900" x2="1629" y2="1800" /><line x1="-462" y1="-900" x2="1638" y2="1800" /><line x1="-453" y1="-900" x2="1647" y2="1800" /><line x1="-444" y1="-900" x2="1656" y2="1800" /><line x1="-435" y1="-900" x2="1665" y2="1800" /><line x1="-426" y1="-900" x2="1674" y2="1800" /><line x1="-417" y1="-900" x2="1683" y2="1800" /><line x1="-408" y1="-900" x2="1692" y2="1800" /><line x1="-399" y1="-900" x2="1701" y2="1800" /><line x1="-390" y1="-900" x2="1710" y2="1800" /><line x1="-381" y1="-900" x2="1719" y2="1800" /><line x1="-372" y1="-900" x2="1728" y2="1800" /><line x1="-363" y1="-900" x2="1737" y2="1800" /><line x1="-354" y1="-900" x2="1746" y2="1800" /><line x1="-345" y1="-900" x2="1755" y2="1800" /><line x1="-336" y1="-900" x2="1764" y2="1800" /><line x1="-327" y1="-900" x2="1773" y2="1800" /><line x1="-318" y1="-900" x2="1782" y2="1800" /><line x1="-309" y1="-900" x2="1791" y2="1800" /><line x1="-300" y1="-900" x2="1800" y2="1800" /><line x1="-291" y1="-900" x2="1809" y2="1800" /><line x1="-282" y1="-900" x2="1818" y2="1800" /><line x1="-273" y1="-900" x2="1827" y2="1800" /><line x1="-264" y1="-900" x2="1836" y2="1800" /><line x1="-255" y1="-900" x2="1845" y2="1800" /><line x1="-246" y1="-900" x2="1854" y2="1800" /><line x1="-237" y1="-900" x2="1863" y2="1800" /><line x1="-228" y1="-900" x2="1872" y2="1800" /><line x1="-219" y1="-900" x2="1881" y2="1800" /><line x1="-210" y1="-900" x2="1890" y2="1800" /><line x1="-201" y1="-900" x2="1899" y2="1800" /><line x1="-192" y1="-900" x2="1908" y2="1800" /><line x1="-183" y1="-900" x2="1917" y2="1800" /><line x1="-174" y1="-900" x2="1926" y2="1800" /><line x1="-165" y1="-900" x2="1935" y2="1800" /><line x1="-156" y1="-900" x2="1944" y2="1800" /><line x1="-147" y1="-900" x2="1953" y2="1800" /><line x1="-138" y1="-900" x2="1962" y2="1800" /><line x1="-129" y1="-900" x2="1971" y2="1800" /><line x1="-120" y1="-900" x2="1980" y2="1800" /><line x1="-111" y1="-900" x2="1989" y2="1800" /><line x1="-102" y1="-900" x2="1998" y2="1800" /><line x1="-93" y1="-900" x2="2007" y2="1800" /><line x1="-84" y1="-900" x2="2016" y2="1800" /><line x1="-75" y1="-900" x2="2025" y2="1800" /><line x1="-66" y1="-900" x2="2034" y2="1800" /><line x1="-57" y1="-900" x2="2043" y2="1800" /><line x1="-48" y1="-900" x2="2052" y2="1800" /><line x1="-39" y1="-900" x2="2061" y2="1800" /><line x1="-30" y1="-900" x2="2070" y2="1800" /><line x1="-21" y1="-900" x2="2079" y2="1800" /><line x1="-12" y1="-900" x2="2088" y2="1800" /><line x1="-3" y1="-900" x2="2097" y2="1800" /><line x1="6" y1="-900" x2="2106" y2="1800" /><line x1="15" y1="-900" x2="2115" y2="1800" /><line x1="24" y1="-900" x2="2124" y2="1800" /><line x1="33" y1="-900" x2="2133" y2="1800" /><line x1="42" y1="-900" x2="2142" y2="1800" /><line x1="51" y1="-900" x2="2151" y2="1800" /><line x1="60" y1="-900" x2="2160" y2="1800" /><line x1="69" y1="-900" x2="2169" y2="1800" /><line x1="78" y1="-900" x2="2178" y2="1800" /><line x1="87" y1="-900" x2="2187" y2="1800" /><line x1="96" y1="-900" x2="2196" y2="1800" /><line x1="105" y1="-900" x2="2205" y2="1800" /><line x1="114" y1="-900" x2="2214" y2="1800" /><line x1="123" y1="-900" x2="2223" y2="1800" /><line x1="132" y1="-900" x2="2232" y2="1800" /><line x1="141" y1="-900" x2="2241" y2="1800" /><line x1="150" y1="-900" x2="2250" y2="1800" /><line x1="159" y1="-900" x2="2259" y2="1800" /><line x1="168" y1="-900" x2="2268" y2="1800" /><line x1="177" y1="-900" x2="2277" y2="1800" /><line x1="186" y1="-900" x2="2286" y2="1800" /><line x1="195" y1="-900" x2="2295" y2="1800" /><line x1="204" y1="-900" x2="2304" y2="1800" /><line x1="213" y1="-900" x2="2313" y2="1800" /><line x1="222" y1="-900" x2="2322" y2="1800" /><line x1="231" y1="-900" x2="2331" y2="1800" /><line x1="240" y1="-900" x2="2340" y2="1800" /><line x1="249" y1="-900" x2="2349" y2="1800" /><line x1="258" y1="-900" x2="2358" y2="1800" /><line x1="267" y1="-900" x2="2367" y2="1800" /><line x1="276" y1="-900" x2="2376" y2="1800" /><line x1="285" y1="-900" x2="2385" y2="1800" /><line x1="294" y1="-900" x2="2394" y2="1800" /><line x1="303" y1="-900" x2="2403" y2="1800" /><line x1="312" y1="-900" x2="2412" y2="1800" /><line x1="321" y1="-900" x2="2421" y2="1800" /><line x1="330" y1="-900" x2="2430" y2="1800" /><line x1="339" y1="-900" x2="2439" y2="1800" /><line x1="348" y1="-900" x2="2448" y2="1800" /><line x1="357" y1="-900" x2="2457" y2="1800" /><line x1="366" y1="-900" x2="2466" y2="1800" /><line x1="375" y1="-900" x2="2475" y2="1800" /><line x1="384" y1="-900" x2="2484" y2="1800" /><line x1="393" y1="-900" x2="2493" y2="1800" /><line x1="402" y1="-900" x2="2502" y2="1800" /><line x1="411" y1="-900" x2="2511" y2="1800" /><line x1="420" y1="-900" x2="2520" y2="1800" /><line x1="429" y1="-900" x2="2529" y2="1800" /><line x1="438" y1="-900" x2="2538" y2="1800" /><line x1="447" y1="-900" x2="2547" y2="1800" /><line x1="456" y1="-900" x2="2556" y2="1800" /><line x1="465" y1="-900" x2="2565" y2="1800" /><line x1="474" y1="-900" x2="2574" y2="1800" /><line x1="483" y1="-900" x2="2583" y2="1800" /><line x1="492" y1="-900" x2="2592" y2="1800" /><line x1="501" y1="-900" x2="2601" y2="1800" /><line x1="510" y1="-900" x2="2610" y2="1800" /><line x1="519" y1="-900" x2="2619" y2="1800" /><line x1="528" y1="-900" x2="2628" y2="1800" /><line x1="537" y1="-900" x2="2637" y2="1800" /><line x1="546" y1="-900" x2="2646" y2="1800" /><line x1="555" y1="-900" x2="2655" y2="1800" /><line x1="564" y1="-900" x2="2664" y2="1800" /><line x1="573" y1="-900" x2="2673" y2="1800" /><line x1="582" y1="-900" x2="2682" y2="1800" /><line x1="591" y1="-900" x2="2691" y2="1800" /><line x1="600" y1="-900" x2="2700" y2="1800" /><line x1="609" y1="-900" x2="2709" y2="1800" /><line x1="618" y1="-900" x2="2718" y2="1800" /><line x1="627" y1="-900" x2="2727" y2="1800" /><line x1="636" y1="-900" x2="2736" y2="1800" /><line x1="645" y1="-900" x2="2745" y2="1800" /><line x1="654" y1="-900" x2="2754" y2="1800" /><line x1="663" y1="-900" x2="2763" y2="1800" /><line x1="672" y1="-900" x2="2772" y2="1800" /><line x1="681" y1="-900" x2="2781" y2="1800" /><line x1="690" y1="-900" x2="2790" y2="1800" /><line x1="699" y1="-900" x2="2799" y2="1800" /><line x1="708" y1="-900" x2="2808" y2="1800" /><line x1="717" y1="-900" x2="2817" y2="1800" /><line x1="726" y1="-900" x2="2826" y2="1800" /><line x1="735" y1="-900" x2="2835" y2="1800" /><line x1="744" y1="-900" x2="2844" y2="1800" /><line x1="753" y1="-900" x2="2853" y2="1800" /><line x1="762" y1="-900" x2="2862" y2="1800" /><line x1="771" y1="-900" x2="2871" y2="1800" /><line x1="780" y1="-900" x2="2880" y2="1800" /><line x1="789" y1="-900" x2="2889" y2="1800" /><line x1="798" y1="-900" x2="2898" y2="1800" /><line x1="807" y1="-900" x2="2907" y2="1800" /><line x1="816" y1="-900" x2="2916" y2="1800" /><line x1="825" y1="-900" x2="2925" y2="1800" /><line x1="834" y1="-900" x2="2934" y2="1800" /><line x1="843" y1="-900" x2="2943" y2="1800" /><line x1="852" y1="-900" x2="2952" y2="1800" /><line x1="861" y1="-900" x2="2961" y2="1800" /><line x1="870" y1="-900" x2="2970" y2="1800" /><line x1="879" y1="-900" x2="2979" y2="1800" /><line x1="888" y1="-900" x2="2988" y2="1800" /><line x1="897" y1="-900" x2="2997" y2="1800" /><line x1="906" y1="-900" x2="3006" y2="1800" /><line x1="915" y1="-900" x2="3015" y2="1800" /><line x1="924" y1="-900" x2="3024" y2="1800" /><line x1="933" y1="-900" x2="3033" y2="1800" /><line x1="942" y1="-900" x2="3042" y2="1800" /><line x1="951" y1="-900" x2="3051" y2="1800" /><line x1="960" y1="-900" x2="3060" y2="1800" /><line x1="969" y1="-900" x2="3069" y2="1800" /><line x1="978" y1="-900" x2="3078" y2="1800" /><line x1="987" y1="-900" x2="3087" y2="1800" /><line x1="996" y1="-900" x2="3096" y2="1800" /><line x1="1005" y1="-900" x2="3105" y2="1800" /><line x1="1014" y1="-900" x2="3114" y2="1800" /><line x1="1023" y1="-900" x2="3123" y2="1800" /><line x1="1032" y1="-900" x2="3132" y2="1800" /><line x1="1041" y1="-900" x2="3141" y2="1800" /><line x1="1050" y1="-900" x2="3150" y2="1800" /><line x1="1059" y1="-900" x2="3159" y2="1800" /><line x1="1068" y1="-900" x2="3168" y2="1800" /><line x1="1077" y1="-900" x2="3177" y2="1800" /><line x1="1086" y1="-900" x2="3186" y2="1800" /><line x1="1095" y1="-900" x2="3195" y2="1800" /><line x1="1104" y1="-900" x2="3204" y2="1800" /><line x1="1113" y1="-900" x2="3213" y2="1800" /><line x1="1122" y1="-900" x2="3222" y2="1800" /><line x1="1131" y1="-900" x2="3231" y2="1800" /><line x1="1140" y1="-900" x2="3240" y2="1800" /><line x1="1149" y1="-900" x2="3249" y2="1800" /><line x1="1158" y1="-900" x2="3258" y2="1800" /><line x1="1167" y1="-900" x2="3267" y2="1800" /><line x1="1176" y1="-900" x2="3276" y2="1800" /><line x1="1185" y1="-900" x2="3285" y2="1800" /><line x1="1194" y1="-900" x2="3294" y2="1800" /><line x1="1203" y1="-900" x2="3303" y2="1800" /><line x1="1212" y1="-900" x2="3312" y2="1800" /><line x1="1221" y1="-900" x2="3321" y2="1800" /><line x1="1230" y1="-900" x2="3330" y2="1800" /><line x1="1239" y1="-900" x2="3339" y2="1800" /><line x1="1248" y1="-900" x2="3348" y2="1800" /><line x1="1257" y1="-900" x2="3357" y2="1800" /><line x1="1266" y1="-900" x2="3366" y2="1800" /><line x1="1275" y1="-900" x2="3375" y2="1800" /><line x1="1284" y1="-900" x2="3384" y2="1800" /><line x1="1293" y1="-900" x2="3393" y2="1800" /><line x1="1302" y1="-900" x2="3402" y2="1800" /><line x1="1311" y1="-900" x2="3411" y2="1800" /><line x1="1320" y1="-900" x2="3420" y2="1800" /><line x1="1329" y1="-900" x2="3429" y2="1800" /><line x1="1338" y1="-900" x2="3438" y2="1800" /><line x1="1347" y1="-900" x2="3447" y2="1800" /><line x1="1356" y1="-900" x2="3456" y2="1800" /><line x1="1365" y1="-900" x2="3465" y2="1800" /><line x1="1374" y1="-900" x2="3474" y2="1800" /><line x1="1383" y1="-900" x2="3483" y2="1800" /><line x1="1392" y1="-900" x2="3492" y2="1800" /><line x1="1401" y1="-900" x2="3501" y2="1800" /><line x1="1410" y1="-900" x2="3510" y2="1800" /><line x1="1419" y1="-900" x2="3519" y2="1800" /><line x1="1428" y1="-900" x2="3528" y2="1800" /><line x1="1437" y1="-900" x2="3537" y2="1800" /><line x1="1446" y1="-900" x2="3546" y2="1800" /><line x1="1455" y1="-900" x2="3555" y2="1800" /><line x1="1464" y1="-900" x2="3564" y2="1800" /><line x1="1473" y1="-900" x2="3573" y2="1800" /><line x1="1482" y1="-900" x2="3582" y2="1800" /><line x1="1491" y1="-900" x2="3591" y2="1800" /><line x1="1500" y1="-900" x2="3600" y2="1800" /><line x1="1509" y1="-900" x2="3609" y2="1800" /><line x1="1518" y1="-900" x2="3618" y2="1800" /><line x1="1527" y1="-900" x2="3627" y2="1800" /><line x1="1536" y1="-900" x2="3636" y2="1800" /><line x1="1545" y1="-900" x2="3645" y2="1800" /><line x1="1554" y1="-900" x2="3654" y2="1800" /><line x1="1563" y1="-900" x2="3663" y2="1800" /><line x1="1572" y1="-900" x2="3672" y2="1800" /><line x1="1581" y1="-900" x2="3681" y2="1800" /><line x1="1590" y1="-900" x2="3690" y2="1800" /><line x1="1599" y1="-900" x2="3699" y2="1800" /><line x1="1608" y1="-900" x2="3708" y2="1800" /><line x1="1617" y1="-900" x2="3717" y2="1800" /><line x1="1626" y1="-900" x2="3726" y2="1800" /><line x1="1635" y1="-900" x2="3735" y2="1800" /><line x1="1644" y1="-900" x2="3744" y2="1800" /><line x1="1653" y1="-900" x2="3753" y2="1800" /><line x1="1662" y1="-900" x2="3762" y2="1800" /><line x1="1671" y1="-900" x2="3771" y2="1800" /><line x1="1680" y1="-900" x2="3780" y2="1800" /><line x1="1689" y1="-900" x2="3789" y2="1800" /><line x1="1698" y1="-900" x2="3798" y2="1800" /><line x1="1707" y1="-900" x2="3807" y2="1800" /><line x1="1716" y1="-900" x2="3816" y2="1800" /><line x1="1725" y1="-900" x2="3825" y2="1800" /><line x1="1734" y1="-900" x2="3834" y2="1800" /><line x1="1743" y1="-900" x2="3843" y2="1800" /><line x1="1752" y1="-900" x2="3852" y2="1800" /><line x1="1761" y1="-900" x2="3861" y2="1800" /><line x1="1770" y1="-900" x2="3870" y2="1800" /><line x1="1779" y1="-900" x2="3879" y2="1800" /><line x1="1788" y1="-900" x2="3888" y2="1800" /><line x1="1797" y1="-900" x2="3897" y2="1800" /><line x1="1806" y1="-900" x2="3906" y2="1800" /><line x1="1815" y1="-900" x2="3915" y2="1800" /><line x1="1824" y1="-900" x2="3924" y2="1800" /><line x1="1833" y1="-900" x2="3933" y2="1800" /><line x1="1842" y1="-900" x2="3942" y2="1800" /><line x1="1851" y1="-900" x2="3951" y2="1800" /><line x1="1860" y1="-900" x2="3960" y2="1800" /><line x1="1869" y1="-900" x2="3969" y2="1800" /><line x1="1878" y1="-900" x2="3978" y2="1800" /><line x1="1887" y1="-900" x2="3987" y2="1800" /><line x1="1896" y1="-900" x2="3996" y2="1800" /><line x1="1905" y1="-900" x2="4005" y2="1800" /><line x1="1914" y1="-900" x2="4014" y2="1800" /><line x1="1923" y1="-900" x2="4023" y2="1800" /><line x1="1932" y1="-900" x2="4032" y2="1800" /><line x1="1941" y1="-900" x2="4041" y2="1800" /><line x1="1950" y1="-900" x2="4050" y2="1800" /><line x1="1959" y1="-900" x2="4059" y2="1800" /><line x1="1968" y1="-900" x2="4068" y2="1800" /><line x1="1977" y1="-900" x2="4077" y2="1800" /><line x1="1986" y1="-900" x2="4086" y2="1800" /><line x1="1995" y1="-900" x2="4095" y2="1800" /><line x1="2004" y1="-900" x2="4104" y2="1800" /><line x1="2013" y1="-900" x2="4113" y2="1800" /><line x1="2022" y1="-900" x2="4122" y2="1800" /><line x1="2031" y1="-900" x2="4131" y2="1800" /><line x1="2040" y1="-900" x2="4140" y2="1800" /><line x1="2049" y1="-900" x2="4149" y2="1800" /><line x1="2058" y1="-900" x2="4158" y2="1800" /><line x1="2067" y1="-900" x2="4167" y2="1800" /><line x1="2076" y1="-900" x2="4176" y2="1800" /><line x1="2085" y1="-900" x2="4185" y2="1800" /><line x1="2094" y1="-900" x2="4194" y2="1800" /></g>
<line x1="0" y1="294" x2="1200" y2="294" stroke="#5c4f3c" stroke-width="3"/><rect x="18" y="28" width="43" height="266" fill="none" stroke="#a2917a" stroke-width="1.4" transform="rotate(0 18 294)"/><rect x="67" y="21" width="34" height="273" fill="none" stroke="#a2917a" stroke-width="1.4" transform="rotate(0 67 294)"/><rect x="107" y="28" width="34" height="266" fill="none" stroke="#a2917a" stroke-width="1.4" transform="rotate(0 107 294)"/><rect x="147" y="35" width="34" height="259" fill="none" stroke="#a2917a" stroke-width="1.4" transform="rotate(0 147 294)"/><rect x="187" y="21" width="34" height="273" fill="none" stroke="#a2917a" stroke-width="1.4" transform="rotate(0 187 294)"/><rect x="227" y="28" width="34" height="266" fill="none" stroke="#a2917a" stroke-width="1.4" transform="rotate(0 227 294)"/><rect x="267" y="35" width="34" height="259" fill="none" stroke="#a2917a" stroke-width="1.4" transform="rotate(0 267 294)"/><rect x="307" y="14" width="34" height="280" fill="none" stroke="#a2917a" stroke-width="1.4" transform="rotate(0 307 294)"/><rect x="347" y="28" width="34" height="266" fill="none" stroke="#a2917a" stroke-width="1.4" transform="rotate(0 347 294)"/><rect x="387" y="35" width="34" height="259" fill="none" stroke="#a2917a" stroke-width="1.4" transform="rotate(6 387 294)"/><rect x="427" y="14" width="34" height="280" fill="none" stroke="#a2917a" stroke-width="1.4" transform="rotate(0 427 294)"/><rect x="467" y="28" width="34" height="266" fill="none" stroke="#a2917a" stroke-width="1.4" transform="rotate(0 467 294)"/><rect x="507" y="35" width="34" height="259" fill="none" stroke="#a2917a" stroke-width="1.4" transform="rotate(0 507 294)"/><rect x="547" y="14" width="34" height="280" fill="none" stroke="#a2917a" stroke-width="1.4" transform="rotate(0 547 294)"/><rect x="587" y="21" width="34" height="273" fill="none" stroke="#a2917a" stroke-width="1.4" transform="rotate(0 587 294)"/><rect x="627" y="35" width="34" height="259" fill="none" stroke="#a2917a" stroke-width="1.4" transform="rotate(0 627 294)"/><rect x="667" y="14" width="34" height="280" fill="none" stroke="#a2917a" stroke-width="1.4" transform="rotate(0 667 294)"/><rect x="707" y="21" width="34" height="273" fill="none" stroke="#a2917a" stroke-width="1.4" transform="rotate(0 707 294)"/><rect x="747" y="35" width="34" height="259" fill="none" stroke="#a2917a" stroke-width="1.4" transform="rotate(0 747 294)"/><rect x="787" y="14" width="34" height="280" fill="none" stroke="#a2917a" stroke-width="1.4" transform="rotate(0 787 294)"/><rect x="827" y="21" width="34" height="273" fill="none" stroke="#a2917a" stroke-width="1.4" transform="rotate(0 827 294)"/><rect x="867" y="28" width="34" height="266" fill="none" stroke="#a2917a" stroke-width="1.4" transform="rotate(0 867 294)"/><rect x="907" y="14" width="34" height="280" fill="none" stroke="#a2917a" stroke-width="1.4" transform="rotate(0 907 294)"/><rect x="947" y="21" width="34" height="273" fill="none" stroke="#a2917a" stroke-width="1.4" transform="rotate(0 947 294)"/><rect x="987" y="28" width="34" height="266" fill="none" stroke="#a2917a" stroke-width="1.4" transform="rotate(0 987 294)"/><rect x="1027" y="14" width="34" height="280" fill="none" stroke="#a2917a" stroke-width="1.4" transform="rotate(0 1027 294)"/><rect x="1067" y="21" width="34" height="273" fill="none" stroke="#a2917a" stroke-width="1.4" transform="rotate(0 1067 294)"/><rect x="1107" y="28" width="34" height="266" fill="none" stroke="#a2917a" stroke-width="1.4" transform="rotate(0 1107 294)"/><rect x="1147" y="14" width="34" height="280" fill="none" stroke="#a2917a" stroke-width="1.4" transform="rotate(0 1147 294)"/><line x1="0" y1="594" x2="1200" y2="594" stroke="#5c4f3c" stroke-width="3"/><rect x="18" y="328" width="16" height="266" fill="none" stroke="#a2917a" stroke-width="1.4" transform="rotate(0 18 594)"/><rect x="40" y="321" width="34" height="273" fill="none" stroke="#a2917a" stroke-width="1.4" transform="rotate(0 40 594)"/><rect x="80" y="328" width="34" height="266" fill="none" stroke="#a2917a" stroke-width="1.4" transform="rotate(0 80 594)"/><rect x="120" y="335" width="34" height="259" fill="none" stroke="#a2917a" stroke-width="1.4" transform="rotate(0 120 594)"/><rect x="160" y="321" width="34" height="273" fill="none" stroke="#a2917a" stroke-width="1.4" transform="rotate(0 160 594)"/><rect x="200" y="328" width="34" height="266" fill="none" stroke="#a2917a" stroke-width="1.4" transform="rotate(0 200 594)"/><rect x="240" y="335" width="34" height="259" fill="none" stroke="#a2917a" stroke-width="1.4" transform="rotate(0 240 594)"/><rect x="280" y="321" width="34" height="273" fill="none" stroke="#a2917a" stroke-width="1.4" transform="rotate(0 280 594)"/><rect x="320" y="328" width="34" height="266" fill="none" stroke="#a2917a" stroke-width="1.4" transform="rotate(0 320 594)"/><rect x="360" y="335" width="34" height="259" fill="none" stroke="#a2917a" stroke-width="1.4" transform="rotate(0 360 594)"/><rect x="400" y="314" width="34" height="280" fill="none" stroke="#a2917a" stroke-width="1.4" transform="rotate(0 400 594)"/><rect x="440" y="328" width="34" height="266" fill="none" stroke="#a2917a" stroke-width="1.4" transform="rotate(0 440 594)"/><rect x="480" y="335" width="34" height="259" fill="none" stroke="#a2917a" stroke-width="1.4" transform="rotate(0 480 594)"/><rect x="520" y="314" width="34" height="280" fill="none" stroke="#a2917a" stroke-width="1.4" transform="rotate(0 520 594)"/><rect x="560" y="328" width="34" height="266" fill="none" stroke="#a2917a" stroke-width="1.4" transform="rotate(0 560 594)"/><rect x="600" y="335" width="34" height="259" fill="none" stroke="#a2917a" stroke-width="1.4" transform="rotate(0 600 594)"/><rect x="640" y="314" width="34" height="280" fill="none" stroke="#a2917a" stroke-width="1.4" transform="rotate(0 640 594)"/><rect x="680" y="321" width="34" height="273" fill="none" stroke="#a2917a" stroke-width="1.4" transform="rotate(0 680 594)"/><rect x="720" y="335" width="34" height="259" fill="none" stroke="#a2917a" stroke-width="1.4" transform="rotate(0 720 594)"/><rect x="760" y="314" width="34" height="280" fill="none" stroke="#a2917a" stroke-width="1.4" transform="rotate(0 760 594)"/><rect x="800" y="321" width="34" height="273" fill="none" stroke="#a2917a" stroke-width="1.4" transform="rotate(0 800 594)"/><rect x="840" y="335" width="34" height="259" fill="none" stroke="#a2917a" stroke-width="1.4" transform="rotate(0 840 594)"/><rect x="880" y="314" width="34" height="280" fill="none" stroke="#a2917a" stroke-width="1.4" transform="rotate(0 880 594)"/><rect x="920" y="321" width="34" height="273" fill="none" stroke="#a2917a" stroke-width="1.4" transform="rotate(0 920 594)"/><rect x="960" y="328" width="34" height="266" fill="none" stroke="#a2917a" stroke-width="1.4" transform="rotate(0 960 594)"/><rect x="1000" y="314" width="34" height="280" fill="none" stroke="#a2917a" stroke-width="1.4" transform="rotate(0 1000 594)"/><rect x="1040" y="321" width="34" height="273" fill="none" stroke="#a2917a" stroke-width="1.4" transform="rotate(0 1040 594)"/><rect x="1080" y="328" width="34" height="266" fill="none" stroke="#a2917a" stroke-width="1.4" transform="rotate(0 1080 594)"/><rect x="1120" y="314" width="34" height="280" fill="none" stroke="#a2917a" stroke-width="1.4" transform="rotate(0 1120 594)"/><line x1="0" y1="894" x2="1200" y2="894" stroke="#5c4f3c" stroke-width="3"/><rect x="18" y="628" width="34" height="266" fill="none" stroke="#a2917a" stroke-width="1.4" transform="rotate(0 18 894)"/><rect x="58" y="635" width="34" height="259" fill="none" stroke="#a2917a" stroke-width="1.4" transform="rotate(0 58 894)"/><rect x="98" y="621" width="34" height="273" fill="none" stroke="#a2917a" stroke-width="1.4" transform="rotate(0 98 894)"/><rect x="138" y="628" width="34" height="266" fill="none" stroke="#a2917a" stroke-width="1.4" transform="rotate(0 138 894)"/><rect x="178" y="635" width="34" height="259" fill="none" stroke="#a2917a" stroke-width="1.4" transform="rotate(0 178 894)"/><rect x="218" y="621" width="34" height="273" fill="none" stroke="#a2917a" stroke-width="1.4" transform="rotate(0 218 894)"/><rect x="258" y="628" width="34" height="266" fill="none" stroke="#a2917a" stroke-width="1.4" transform="rotate(6 258 894)"/><rect x="298" y="635" width="34" height="259" fill="none" stroke="#a2917a" stroke-width="1.4" transform="rotate(0 298 894)"/><rect x="338" y="614" width="34" height="280" fill="none" stroke="#a2917a" stroke-width="1.4" transform="rotate(0 338 894)"/><rect x="378" y="628" width="34" height="266" fill="none" stroke="#a2917a" stroke-width="1.4" transform="rotate(0 378 894)"/><rect x="418" y="635" width="34" height="259" fill="none" stroke="#a2917a" stroke-width="1.4" transform="rotate(0 418 894)"/><rect x="458" y="614" width="34" height="280" fill="none" stroke="#a2917a" stroke-width="1.4" transform="rotate(0 458 894)"/><rect x="498" y="628" width="34" height="266" fill="none" stroke="#a2917a" stroke-width="1.4" transform="rotate(0 498 894)"/><rect x="538" y="635" width="34" height="259" fill="none" stroke="#a2917a" stroke-width="1.4" transform="rotate(0 538 894)"/><rect x="578" y="614" width="34" height="280" fill="none" stroke="#a2917a" stroke-width="1.4" transform="rotate(0 578 894)"/><rect x="618" y="621" width="34" height="273" fill="none" stroke="#a2917a" stroke-width="1.4" transform="rotate(0 618 894)"/><rect x="658" y="635" width="34" height="259" fill="none" stroke="#a2917a" stroke-width="1.4" transform="rotate(0 658 894)"/><rect x="698" y="614" width="34" height="280" fill="none" stroke="#a2917a" stroke-width="1.4" transform="rotate(0 698 894)"/><rect x="738" y="621" width="34" height="273" fill="none" stroke="#a2917a" stroke-width="1.4" transform="rotate(0 738 894)"/><rect x="778" y="635" width="34" height="259" fill="none" stroke="#a2917a" stroke-width="1.4" transform="rotate(0 778 894)"/><rect x="818" y="614" width="34" height="280" fill="none" stroke="#a2917a" stroke-width="1.4" transform="rotate(0 818 894)"/><rect x="858" y="621" width="34" height="273" fill="none" stroke="#a2917a" stroke-width="1.4" transform="rotate(0 858 894)"/><rect x="898" y="628" width="34" height="266" fill="none" stroke="#a2917a" stroke-width="1.4" transform="rotate(0 898 894)"/><rect x="938" y="614" width="34" height="280" fill="none" stroke="#a2917a" stroke-width="1.4" transform="rotate(0 938 894)"/><rect x="978" y="621" width="34" height="273" fill="none" stroke="#a2917a" stroke-width="1.4" transform="rotate(0 978 894)"/><rect x="1018" y="628" width="34" height="266" fill="none" stroke="#a2917a" stroke-width="1.4" transform="rotate(0 1018 894)"/><rect x="1058" y="614" width="34" height="280" fill="none" stroke="#a2917a" stroke-width="1.4" transform="rotate(0 1058 894)"/><rect x="1098" y="621" width="34" height="273" fill="none" stroke="#a2917a" stroke-width="1.4" transform="rotate(0 1098 894)"/><rect x="1138" y="628" width="34" height="266" fill="none" stroke="#a2917a" stroke-width="1.4" transform="rotate(0 1138 894)"/>
<rect x="18" y="18" width="1164" height="864" fill="none" stroke="#5c4f3c" stroke-width="1.5" opacity="0.5"/>
<rect x="27" y="27" width="1146" height="846" fill="none" stroke="#5c4f3c" stroke-width="0.75" opacity="0.32"/>
</svg>